ffmpeg version 4.2.2 Copyright (c) 2000-2019 the FFmpeg developers
  built with Apple clang version 11.0.0 (clang-1100.0.33.16)
  configuration: --prefix=/usr/local/Cellar/ffmpeg/4.2.2_1 --enable-shared --enable-pthreads --enable-version3 --enable-avresample --cc=clang --host-cflags='-I/Library/Java/JavaVirtualMachines/adoptopenjdk-13.0.1.jdk/Contents/Home/include -I/Library/Java/JavaVirtualMachines/adoptopenjdk-13.0.1.jdk/Contents/Home/include/darwin -fno-stack-check' --host-ldflags= --enable-ffplay --enable-gnutls --enable-gpl --enable-libaom --enable-libbluray --enable-libmp3lame --enable-libopus --enable-librubberband --enable-libsnappy --enable-libtesseract --enable-libtheora --enable-libvidstab --enable-libvorbis --enable-libvpx --enable-libwebp --enable-libx264 --enable-libx265 --enable-libxvid --enable-lzma --enable-libfontconfig --enable-libfreetype --enable-frei0r --enable-libass --enable-libopencore-amrnb --enable-libopencore-amrwb --enable-libopenjpeg --enable-librtmp --enable-libspeex --enable-libsoxr --enable-videotoolbox --disable-libjack --disable-indev=jack
  libavutil      56. 31.100 / 56. 31.100
  libavcodec     58. 54.100 / 58. 54.100
  libavformat    58. 29.100 / 58. 29.100
  libavdevice    58.  8.100 / 58.  8.100
  libavfilter     7. 57.100 /  7. 57.100
  libavresample   4.  0.  0 /  4.  0.  0
  libswscale      5.  5.100 /  5.  5.100
  libswresample   3.  5.100 /  3.  5.100
  libpostproc    55.  5.100 / 55.  5.100
Input #0, image2pipe, from 'pipe:':
  Duration: N/A, bitrate: N/A
    Stream #0:0: Video: ppm, rgb24, 640x480, 24 fps, 24 tbr, 24 tbn, 24 tbc
Stream mapping:
  Stream #0:0 -> #0:0 (ppm (native) -> h264 (libx264))
[libx264 @ 0x7fbbc6800000] using cpu capabilities: MMX2 SSE2Fast SSSE3 SSE4.2 AVX FMA3 BMI2 AVX2
[libx264 @ 0x7fbbc6800000] profile High, level 3.0
[libx264 @ 0x7fbbc6800000] 264 - core 155 r2917 0a84d98 - H.264/MPEG-4 AVC codec - Copyleft 2003-2018 - http://www.videolan.org/x264.html - options: cabac=1 ref=3 deblock=1:0:0 analyse=0x3:0x113 me=hex subme=7 psy=1 psy_rd=1.00:0.00 mixed_ref=1 me_range=16 chroma_me=1 trellis=1 8x8dct=1 cqm=0 deadzone=21,11 fast_pskip=1 chroma_qp_offset=-2 threads=12 lookahead_threads=2 sliced_threads=0 nr=0 decimate=1 interlaced=0 bluray_compat=0 constrained_intra=0 bframes=3 b_pyramid=2 b_adapt=1 b_bias=0 direct=1 weightb=1 open_gop=0 weightp=2 keyint=250 keyint_min=24 scenecut=40 intra_refresh=0 rc_lookahead=40 rc=abr mbtree=1 bitrate=2000 ratetol=1.0 qcomp=0.60 qpmin=0 qpmax=69 qpstep=4 ip_ratio=1.40 aq=1:1.00
Output #0, mp4, to './mission_records/80e0fb1c-c058-4b3a-afa6-18d962518356/video.mp4':
  Metadata:
    encoder         : Lavf58.29.100
    Stream #0:0: Video: h264 (libx264) (avc1 / 0x31637661), yuv420p, 640x480, q=-1--1, 2000 kb/s, 24 fps, 12288 tbn, 24 tbc
    Metadata:
      encoder         : Lavc58.54.100 libx264
    Side data:
      cpb: bitrate max/min/avg: 0/0/2000000 buffer size: 0 vbv_delay: -1
frame=   12 fps=0.0 q=0.0 size=       0kB time=00:00:00.00 bitrate=N/A speed=   0x    frame=   17 fps= 14 q=0.0 size=       0kB time=00:00:00.00 bitrate=N/A speed=   0x    frame=   22 fps= 12 q=0.0 size=       0kB time=00:00:00.00 bitrate=N/A speed=   0x    frame=   27 fps= 11 q=0.0 size=       0kB time=00:00:00.00 bitrate=N/A speed=   0x    frame=   32 fps= 11 q=0.0 size=       0kB time=00:00:00.00 bitrate=N/A speed=   0x    frame=   37 fps= 10 q=0.0 size=       0kB time=00:00:00.00 bitrate=N/A speed=   0x    frame=   42 fps= 10 q=0.0 size=       0kB time=00:00:00.00 bitrate=N/A speed=   0x    frame=   47 fps= 10 q=0.0 size=       0kB time=00:00:00.00 bitrate=N/A speed=   0x    frame=   52 fps=9.8 q=0.0 size=       0kB time=00:00:00.00 bitrate=N/A speed=   0x    frame=   57 fps=9.7 q=22.0 size=       0kB time=-00:00:00.08 bitrate=N/A speed=N/A    frame=   62 fps=9.5 q=22.0 size=       0kB time=00:00:00.12 bitrate=   3.1kbits/s speed=0.0192x    frame=   67 fps=9.4 q=17.0 size=       0kB time=00:00:00.33 bitrate=   1.2kbits/s speed=0.0467x    frame=   72 fps=9.3 q=15.0 size=       0kB time=00:00:00.54 bitrate=   0.7kbits/s speed=0.0699x    frame=   77 fps=9.2 q=15.0 size=       0kB time=00:00:00.75 bitrate=   0.5kbits/s speed=0.0897x    frame=   82 fps=9.2 q=17.0 size=     256kB time=00:00:00.95 bitrate=2188.5kbits/s speed=0.107x    frame=   87 fps=9.2 q=22.0 size=     256kB time=00:00:01.16 bitrate=1797.8kbits/s speed=0.123x    frame=   92 fps=9.1 q=23.0 size=     512kB time=00:00:01.37 bitrate=3050.5kbits/s speed=0.137x    frame=   97 fps=9.1 q=23.0 size=     512kB time=00:00:01.58 bitrate=2649.1kbits/s speed=0.149x    frame=  102 fps=9.1 q=23.0 size=     512kB time=00:00:01.79 bitrate=2341.1kbits/s speed=0.16x    frame=  107 fps=9.1 q=24.0 size=     768kB time=00:00:02.00 bitrate=3145.8kbits/s speed=0.17x    frame=  112 fps=9.1 q=26.0 size=     768kB time=00:00:02.20 bitrate=2849.0kbits/s speed=0.18x    frame=  117 fps=9.1 q=26.0 size=     768kB time=00:00:02.41 bitrate=2603.4kbits/s speed=0.188x    frame=  122 fps=9.1 q=27.0 size=    1024kB time=00:00:02.62 bitrate=3195.7kbits/s speed=0.195x    frame=  127 fps=9.0 q=28.0 size=    1024kB time=00:00:02.83 bitrate=2960.7kbits/s speed=0.202x    frame=  132 fps=9.0 q=28.0 size=    1024kB time=00:00:03.04 bitrate=2758.0kbits/s speed=0.208x    frame=  137 fps=9.0 q=28.0 size=    1024kB time=00:00:03.25 bitrate=2581.2kbits/s speed=0.214x    frame=  142 fps=9.0 q=28.0 size=    1024kB time=00:00:03.45 bitrate=2425.7kbits/s speed=0.22x    frame=  147 fps=9.0 q=28.0 size=    1280kB time=00:00:03.66 bitrate=2859.8kbits/s speed=0.225x    frame=  152 fps=9.0 q=27.0 size=    1280kB time=00:00:03.87 bitrate=2706.0kbits/s speed=0.23x    frame=  157 fps=9.0 q=24.0 size=    1280kB time=00:00:04.08 bitrate=2568.0kbits/s speed=0.235x    frame=  162 fps=9.0 q=27.0 size=    1280kB time=00:00:04.29 bitrate=2443.3kbits/s speed=0.239x    frame=  167 fps=9.0 q=27.0 size=    1280kB time=00:00:04.50 bitrate=2330.2kbits/s speed=0.243x    frame=  172 fps=9.0 q=27.0 size=    1280kB time=00:00:04.70 bitrate=2227.1kbits/s speed=0.247x    frame=  177 fps=9.0 q=26.0 size=    1280kB time=00:00:04.91 bitrate=2132.7kbits/s speed=0.251x    frame=  182 fps=9.0 q=26.0 size=    1280kB time=00:00:05.12 bitrate=2046.0kbits/s speed=0.254x    frame=  187 fps=9.0 q=26.0 size=    1536kB time=00:00:05.33 bitrate=2359.3kbits/s speed=0.257x    frame=  192 fps=9.0 q=25.0 size=    1536kB time=00:00:05.54 bitrate=2270.6kbits/s speed=0.26x    frame=  197 fps=9.0 q=25.0 size=    1536kB time=00:00:05.75 bitrate=2188.4kbits/s speed=0.263x    frame=  202 fps=9.0 q=25.0 size=    1536kB time=00:00:05.95 bitrate=2111.9kbits/s speed=0.265x    frame=  207 fps=9.0 q=24.0 size=    1536kB time=00:00:06.16 bitrate=2040.5kbits/s speed=0.268x    frame=  212 fps=9.0 q=22.0 size=    1536kB time=00:00:06.37 bitrate=1973.8kbits/s speed=0.27x    frame=  217 fps=9.0 q=24.0 size=    1536kB time=00:00:06.58 bitrate=1911.4kbits/s speed=0.272x    frame=  222 fps=9.0 q=24.0 size=    1536kB time=00:00:06.79 bitrate=1852.7kbits/s speed=0.274x    frame=  227 fps=9.0 q=23.0 size=    1536kB time=00:00:07.00 bitrate=1797.6kbits/s speed=0.276x    frame=  232 fps=9.0 q=23.0 size=    1536kB time=00:00:07.20 bitrate=1745.6kbits/s speed=0.278x    frame=  237 fps=9.0 q=23.0 size=    1792kB time=00:00:07.41 bitrate=1979.4kbits/s speed=0.28x    frame=  242 fps=9.0 q=23.0 size=    1792kB time=00:00:07.62 bitrate=1925.3kbits/s speed=0.282x    frame=  247 fps=9.0 q=23.0 size=    1792kB time=00:00:07.83 bitrate=1874.1kbits/s speed=0.284x    frame=  252 fps=9.0 q=23.0 size=    1792kB time=00:00:08.04 bitrate=1825.5kbits/s speed=0.286x    frame=  257 fps=9.0 q=23.0 size=    2048kB time=00:00:08.25 bitrate=2033.6kbits/s speed=0.288x    frame=  262 fps=9.0 q=24.0 size=    2048kB time=00:00:08.45 bitrate=1983.5kbits/s speed=0.289x    frame=  267 fps=9.0 q=24.0 size=    2048kB time=00:00:08.66 bitrate=1935.9kbits/s speed=0.291x    frame=  272 fps=9.0 q=25.0 size=    2304kB time=00:00:08.87 bitrate=2126.7kbits/s speed=0.292x    frame=  277 fps=9.0 q=21.0 size=    2304kB time=00:00:09.08 bitrate=2077.9kbits/s speed=0.294x    frame=  281 fps=8.9 q=21.0 size=    2304kB time=00:00:09.25 bitrate=2040.5kbits/s speed=0.294x    frame=  286 fps=8.9 q=22.0 size=    2304kB time=00:00:09.45 bitrate=1995.6kbits/s speed=0.294x    frame=  290 fps=8.9 q=26.0 size=    2560kB time=00:00:09.62 bitrate=2178.9kbits/s speed=0.295x    frame=  295 fps=8.9 q=25.0 size=    2560kB time=00:00:09.83 bitrate=2132.7kbits/s speed=0.296x    frame=  300 fps=8.9 q=26.0 size=    2560kB time=00:00:10.04 bitrate=2088.5kbits/s speed=0.297x    frame=  305 fps=8.9 q=25.0 size=    2560kB time=00:00:10.25 bitrate=2046.0kbits/s speed=0.298x    frame=  310 fps=8.9 q=25.0 size=    2816kB time=00:00:10.45 bitrate=2205.8kbits/s speed=0.299x    frame=  315 fps=8.9 q=25.0 size=    2816kB time=00:00:10.66 bitrate=2162.7kbits/s speed= 0.3x    frame=  320 fps=8.9 q=25.0 size=    2816kB time=00:00:10.87 bitrate=2121.3kbits/s speed=0.302x    frame=  325 fps=8.9 q=25.0 size=    2816kB time=00:00:11.08 bitrate=2081.4kbits/s speed=0.303x    frame=  330 fps=8.9 q=25.0 size=    2816kB time=00:00:11.29 bitrate=2043.0kbits/s speed=0.304x    frame=  335 fps=8.9 q=24.0 size=    2816kB time=00:00:11.50 bitrate=2006.0kbits/s speed=0.305x    frame=  340 fps=8.9 q=25.0 size=    3072kB time=00:00:11.70 bitrate=2149.4kbits/s speed=0.305x    frame=  345 fps=8.9 q=25.0 size=    3072kB time=00:00:11.91 bitrate=2111.8kbits/s speed=0.306x    frame=  350 fps=8.9 q=25.0 size=    3072kB time=00:00:12.12 bitrate=2075.5kbits/s speed=0.307x    frame=  355 fps=8.9 q=25.0 size=    3072kB time=00:00:12.33 bitrate=2040.5kbits/s speed=0.308x    frame=  360 fps=8.9 q=25.0 size=    3328kB time=00:00:12.54 bitrate=2173.8kbits/s speed=0.309x    frame=  365 fps=8.9 q=25.0 size=    3328kB time=00:00:12.75 bitrate=2138.3kbits/s speed=0.31x    frame=  370 fps=8.9 q=25.0 size=    3328kB time=00:00:12.95 bitrate=2103.9kbits/s speed=0.311x    frame=  375 fps=8.9 q=25.0 size=    3328kB time=00:00:13.16 bitrate=2070.6kbits/s speed=0.312x    frame=  380 fps=8.9 q=25.0 size=    3328kB time=00:00:13.37 bitrate=2038.4kbits/s speed=0.313x    frame=  385 fps=8.9 q=25.0 size=    3584kB time=00:00:13.58 bitrate=2161.5kbits/s speed=0.313x    frame=  390 fps=8.9 q=25.0 size=    3584kB time=00:00:13.79 bitrate=2128.8kbits/s speed=0.314x    frame=  395 fps=8.9 q=25.0 size=    3584kB time=00:00:14.00 bitrate=2097.2kbits/s speed=0.314x    frame=  400 fps=8.9 q=25.0 size=    3584kB time=00:00:14.20 bitrate=2066.4kbits/s speed=0.315x    frame=  405 fps=8.9 q=25.0 size=    3584kB time=00:00:14.41 bitrate=2036.6kbits/s speed=0.315x    frame=  410 fps=8.9 q=24.0 size=    3584kB time=00:00:14.62 bitrate=2007.5kbits/s speed=0.316x    frame=  415 fps=8.8 q=24.0 size=    3584kB time=00:00:14.83 bitrate=1979.3kbits/s speed=0.316x    frame=  420 fps=8.8 q=24.0 size=    3584kB time=00:00:15.04 bitrate=1951.9kbits/s speed=0.317x    frame=  425 fps=8.8 q=24.0 size=    3584kB time=00:00:15.25 bitrate=1925.3kbits/s speed=0.317x    frame=  430 fps=8.8 q=24.0 size=    3584kB time=00:00:15.45 bitrate=1899.3kbits/s speed=0.318x    frame=  435 fps=8.8 q=24.0 size=    3840kB time=00:00:15.66 bitrate=2007.9kbits/s speed=0.319x    frame=  440 fps=8.8 q=24.0 size=    3840kB time=00:00:15.87 bitrate=1981.6kbits/s speed=0.319x    frame=  445 fps=8.8 q=24.0 size=    3840kB time=00:00:16.08 bitrate=1955.9kbits/s speed=0.32x    frame=  450 fps=8.9 q=24.0 size=    3840kB time=00:00:16.29 bitrate=1930.9kbits/s speed=0.32x    frame=  455 fps=8.9 q=24.0 size=    3840kB time=00:00:16.50 bitrate=1906.5kbits/s speed=0.321x    frame=  460 fps=8.9 q=24.0 size=    4096kB time=00:00:16.70 bitrate=2008.3kbits/s speed=0.322x    frame=  465 fps=8.9 q=24.0 size=    4096kB time=00:00:16.91 bitrate=1983.5kbits/s speed=0.322x    frame=  470 fps=8.9 q=24.0 size=    4096kB time=00:00:17.12 bitrate=1959.4kbits/s speed=0.323x    frame=  475 fps=8.9 q=23.0 size=    4096kB time=00:00:17.33 bitrate=1935.8kbits/s speed=0.323x    frame=  480 fps=8.9 q=23.0 size=    4096kB time=00:00:17.54 bitrate=1912.9kbits/s speed=0.324x    frame=  485 fps=8.9 q=23.0 size=    4096kB time=00:00:17.75 bitrate=1890.4kbits/s speed=0.325x    frame=  490 fps=8.9 q=23.0 size=    4352kB time=00:00:17.95 bitrate=1985.3kbits/s speed=0.325x    frame=  495 fps=8.9 q=23.0 size=    4352kB time=00:00:18.16 bitrate=1962.5kbits/s speed=0.326x    frame=  500 fps=8.9 q=24.0 size=    4352kB time=00:00:18.37 bitrate=1940.2kbits/s speed=0.326x    frame=  505 fps=8.9 q=24.0 size=    4352kB time=00:00:18.58 bitrate=1918.5kbits/s speed=0.327x    frame=  510 fps=8.9 q=24.0 size=    4608kB time=00:00:18.79 bitrate=2008.8kbits/s speed=0.327x    frame=  515 fps=8.9 q=24.0 size=    4608kB time=00:00:19.00 bitrate=1986.8kbits/s speed=0.328x    frame=  520 fps=8.9 q=23.0 size=    4608kB time=00:00:19.20 bitrate=1965.2kbits/s speed=0.328x    frame=  525 fps=8.9 q=23.0 size=    4608kB time=00:00:19.41 bitrate=1944.2kbits/s speed=0.329x    frame=  530 fps=8.9 q=23.0 size=    4608kB time=00:00:19.62 bitrate=1923.5kbits/s speed=0.329x    frame=  535 fps=8.9 q=23.0 size=    4608kB time=00:00:19.83 bitrate=1903.3kbits/s speed=0.33x    frame=  540 fps=8.9 q=23.0 size=    4608kB time=00:00:20.04 bitrate=1883.5kbits/s speed=0.33x    frame=  545 fps=8.9 q=23.0 size=    4864kB time=00:00:20.25 bitrate=1967.7kbits/s speed=0.33x    frame=  550 fps=8.9 q=23.0 size=    4864kB time=00:00:20.45 bitrate=1947.7kbits/s speed=0.331x    frame=  555 fps=8.9 q=23.0 size=    4864kB time=00:00:20.66 bitrate=1928.0kbits/s speed=0.331x    frame=  560 fps=8.9 q=23.0 size=    4864kB time=00:00:20.87 bitrate=1908.8kbits/s speed=0.331x    frame=  565 fps=8.9 q=23.0 size=    4864kB time=00:00:21.08 bitrate=1889.9kbits/s speed=0.332x    frame=  570 fps=8.9 q=22.0 size=    4864kB time=00:00:21.29 bitrate=1871.4kbits/s speed=0.332x    frame=  574 fps=8.9 q=22.0 size=    4864kB time=00:00:21.45 bitrate=1856.9kbits/s speed=0.332x    frame=  579 fps=8.9 q=22.0 size=    4864kB time=00:00:21.66 bitrate=1839.1kbits/s speed=0.332x    frame=  584 fps=8.9 q=22.0 size=    4864kB time=00:00:21.87 bitrate=1821.5kbits/s speed=0.333x    frame=  589 fps=8.9 q=21.0 size=    4864kB time=00:00:22.08 bitrate=1804.4kbits/s speed=0.333x    frame=  589 fps=8.9 q=-1.0 Lsize=    5107kB time=00:00:24.41 bitrate=1713.3kbits/s speed=0.367x    
video:5100kB audio:0kB subtitle:0kB other streams:0kB global headers:0kB muxing overhead: 0.140753%
[libx264 @ 0x7fbbc6800000] frame I:32    Avg QP:16.17  size: 25268
[libx264 @ 0x7fbbc6800000] frame P:226   Avg QP:18.29  size: 11166
[libx264 @ 0x7fbbc6800000] frame B:331   Avg QP:19.75  size:  5707
[libx264 @ 0x7fbbc6800000] consecutive B-frames: 18.3% 15.3% 14.8% 51.6%
[libx264 @ 0x7fbbc6800000] mb I  I16..4:  6.6% 39.5% 53.9%
[libx264 @ 0x7fbbc6800000] mb P  I16..4:  4.4% 20.4% 14.4%  P16..4: 21.1% 14.4%  9.7%  0.0%  0.0%    skip:15.6%
[libx264 @ 0x7fbbc6800000] mb B  I16..4:  1.7%  3.5%  3.4%  B16..8: 26.4% 14.9%  6.2%  direct: 4.1%  skip:39.8%  L0:47.4% L1:48.0% BI: 4.7%
[libx264 @ 0x7fbbc6800000] final ratefactor: 16.89
[libx264 @ 0x7fbbc6800000] 8x8 transform intra:47.1% inter:54.0%
[libx264 @ 0x7fbbc6800000] coded y,uvDC,uvAC intra: 48.9% 57.3% 34.4% inter: 21.5% 20.0% 2.9%
[libx264 @ 0x7fbbc6800000] i16 v,h,dc,p: 41% 37% 15%  6%
[libx264 @ 0x7fbbc6800000] i8 v,h,dc,ddl,ddr,vr,hd,vl,hu: 31% 19% 27%  3%  4%  3%  5%  3%  5%
[libx264 @ 0x7fbbc6800000] i4 v,h,dc,ddl,ddr,vr,hd,vl,hu: 37% 25% 15%  3%  4%  4%  5%  3%  4%
[libx264 @ 0x7fbbc6800000] i8c dc,h,v,p: 58% 19% 19%  3%
[libx264 @ 0x7fbbc6800000] Weighted P-Frames: Y:4.9% UV:1.3%
[libx264 @ 0x7fbbc6800000] ref P L0: 69.8% 10.9% 11.8%  6.6%  1.0%
[libx264 @ 0x7fbbc6800000] ref B L0: 85.9% 11.5%  2.6%
[libx264 @ 0x7fbbc6800000] ref B L1: 93.5%  6.5%
[libx264 @ 0x7fbbc6800000] kb/s:1701.99
Exiting normally, received signal 2.
